# xmcd
#
# Track frame offsets: 
#        150
#        17390
#        41596
#        58983
#        81183
#        98549
#        123006
#        141475
#        159990
#
# Disc length: 2372 seconds
#
# Revision: 0
# Processed by: cddbd v1.5.2PL0 Copyright (c) Steve Scherf et al.
# Submitted via: ExactAudioCopyFreeDBPlugin 1.0
#
DISCID=69094209
DTITLE=Natalie Cole - Thankful
DYEAR=1977
DGENRE=R&B
TTITLE0=Lovers
TTITLE1=Our Love
TTITLE2=La Costa
TTITLE3=Nothing Stronger Then Love
TTITLE4=Be Thankful
TTITLE5=Just Can't Stay Away
TTITLE6=Annie Mae
TTITLE7=Keeping A Light
TTITLE8=Our Love (Bonus Track)
EXTD=
EXTT0=
EXTT1=
EXTT2=
EXTT3=
EXTT4=
EXTT5=
EXTT6=
EXTT7=
EXTT8=
PLAYORDER=
